<?xml version="1.0" encoding="UTF-8" standalone="no"?>
<svg width="355px" height="186px" viewBox="0 0 355 186" version="1.1" xmlns="http://www.w3.org/2000/svg" xmlns:xlink="http://www.w3.org/1999/xlink">
    <!-- Generator: Sketch 3.6.1 (26313) - http://www.bohemiancoding.com/sketch -->
    <title>Group</title>
    <desc>Created with Sketch.</desc>
    <defs></defs>
    <g id="Page-1" stroke="none" stroke-width="1" fill="none" fill-rule="evenodd">
        <g id="Group" transform="translate(5.000000, 6.000000)">
            <path d="M0,78.0641556 L0,39.5293042 L198.180389,0 L220,24.5293042 L220,99.5293042 L20,99.5293042 L0,78.0641556 Z" id="Rectangle-1" stroke="#000000" stroke-width="5" fill="#FFFFFF"></path>
            <path d="M75,157.741577 L75,80 L323.077911,80 L345,100 L345,175 L95,175 L75,157.741577 Z" id="Rectangle-1" stroke="#000000" stroke-width="5" fill="#FFFFFF"></path>
            <rect id="Rectangle-2" stroke="#000000" stroke-width="5" stroke-linecap="square" fill="#FFFFFF" x="75" y="80" width="245" height="75"></rect>
            <path d="M75,75.0000004 L50,75.0000004 L3.55271368e-15,75.0000001 L3.65255236e-07,0 L195,0 L195,80 L320,80 L320,155 L200,155 L75,155 L75,75.0000004 Z" id="Rectangle-2" stroke="#000000" stroke-width="5" stroke-linecap="square" fill="#FFFFFF"></path>
            <text id="Hurlow" font-family="Avenir-Heavy, Avenir" font-size="55" font-weight="600" fill="#000000">
                <tspan x="104.825" y="135">Hurlow</tspan>
            </text>
            <text id="Scott" font-family="Avenir-Heavy, Avenir" font-size="55" font-weight="600" fill="#000000">
                <tspan x="30.29" y="55">Scott</tspan>
            </text>
        </g>
    </g>
</svg>